<mxfile host="app.diagrams.net" agent="Mozilla/5.0 (Macintosh; Intel Mac OS X 10_15_7) AppleWebKit/537.36 (KHTML, like Gecko) Chrome/138.0.0.0 Safari/537.36" version="28.1.2">
  <diagram name="Page-1" id="9-EtZxRv1wuLm43lU74D">
    <mxGraphModel dx="1018" dy="655" grid="1" gridSize="10" guides="1" tooltips="1" connect="1" arrows="1" fold="1" page="1" pageScale="1" pageWidth="827" pageHeight="1169" math="0" shadow="0">
      <root>
        <mxCell id="0" />
        <mxCell id="1" parent="0" />
        <mxCell id="KQYetCOrPKmWB9ZuKT2d-9" style="edgeStyle=orthogonalEdgeStyle;rounded=0;orthogonalLoop=1;jettySize=auto;html=1;entryX=0;entryY=0.5;entryDx=0;entryDy=0;" edge="1" parent="1" source="KQYetCOrPKmWB9ZuKT2d-7" target="KQYetCOrPKmWB9ZuKT2d-8">
          <mxGeometry relative="1" as="geometry" />
        </mxCell>
        <mxCell id="KQYetCOrPKmWB9ZuKT2d-7" value="INPUT DATA SOURCES" style="rounded=0;whiteSpace=wrap;html=1;" vertex="1" parent="1">
          <mxGeometry x="30" y="170" width="60" height="250" as="geometry" />
        </mxCell>
        <mxCell id="KQYetCOrPKmWB9ZuKT2d-12" style="edgeStyle=orthogonalEdgeStyle;rounded=0;orthogonalLoop=1;jettySize=auto;html=1;entryX=0;entryY=0.5;entryDx=0;entryDy=0;" edge="1" parent="1" source="KQYetCOrPKmWB9ZuKT2d-8" target="KQYetCOrPKmWB9ZuKT2d-10">
          <mxGeometry relative="1" as="geometry" />
        </mxCell>
        <mxCell id="KQYetCOrPKmWB9ZuKT2d-8" value="PRE- INGESTION&lt;div&gt;&lt;br&gt;&lt;/div&gt;&lt;div&gt;&lt;br&gt;&lt;div&gt;1. Data Proc Spark Jobs&lt;/div&gt;&lt;div&gt;2. Cloud Storage Transfer Services&lt;/div&gt;&lt;div&gt;3. Cloud Data Fusion&lt;br&gt;&lt;div&gt;&lt;br&gt;&lt;/div&gt;&lt;/div&gt;&lt;/div&gt;" style="rounded=0;whiteSpace=wrap;html=1;" vertex="1" parent="1">
          <mxGeometry x="140" y="170" width="110" height="250" as="geometry" />
        </mxCell>
        <mxCell id="KQYetCOrPKmWB9ZuKT2d-10" value="&lt;div&gt;RAW STORAGE&lt;/div&gt;&lt;div&gt;&lt;br&gt;&lt;/div&gt;&lt;div&gt;&lt;br&gt;&lt;/div&gt;&lt;div&gt;GCS BUCKET&lt;/div&gt;&lt;div&gt;&lt;br&gt;&lt;/div&gt;" style="rounded=0;whiteSpace=wrap;html=1;" vertex="1" parent="1">
          <mxGeometry x="300" y="170" width="110" height="250" as="geometry" />
        </mxCell>
        <mxCell id="KQYetCOrPKmWB9ZuKT2d-13" style="edgeStyle=orthogonalEdgeStyle;rounded=0;orthogonalLoop=1;jettySize=auto;html=1;entryX=0;entryY=0.5;entryDx=0;entryDy=0;" edge="1" parent="1">
          <mxGeometry relative="1" as="geometry">
            <mxPoint x="410" y="294.5" as="sourcePoint" />
            <mxPoint x="460" y="294.5" as="targetPoint" />
          </mxGeometry>
        </mxCell>
        <mxCell id="KQYetCOrPKmWB9ZuKT2d-16" value="" style="edgeStyle=orthogonalEdgeStyle;rounded=0;orthogonalLoop=1;jettySize=auto;html=1;" edge="1" parent="1" source="KQYetCOrPKmWB9ZuKT2d-14" target="KQYetCOrPKmWB9ZuKT2d-15">
          <mxGeometry relative="1" as="geometry" />
        </mxCell>
        <mxCell id="KQYetCOrPKmWB9ZuKT2d-14" value="INGESTION FRAMEWORK&lt;div&gt;&lt;br&gt;&lt;/div&gt;&lt;div&gt;&lt;br&gt;&lt;/div&gt;&lt;div&gt;Data Proc&amp;nbsp;&lt;/div&gt;&lt;div&gt;Pyspark based Ingestion framework&lt;/div&gt;&lt;div&gt;&lt;br&gt;&lt;/div&gt;&lt;div&gt;&lt;br&gt;&lt;/div&gt;&lt;div&gt;&lt;br&gt;&lt;/div&gt;&lt;div&gt;&lt;br&gt;&lt;/div&gt;&lt;div&gt;&lt;br&gt;&lt;/div&gt;&lt;div&gt;&lt;br&gt;&lt;/div&gt;" style="rounded=0;whiteSpace=wrap;html=1;" vertex="1" parent="1">
          <mxGeometry x="460" y="170" width="110" height="250" as="geometry" />
        </mxCell>
        <mxCell id="KQYetCOrPKmWB9ZuKT2d-18" value="" style="edgeStyle=orthogonalEdgeStyle;rounded=0;orthogonalLoop=1;jettySize=auto;html=1;" edge="1" parent="1" source="KQYetCOrPKmWB9ZuKT2d-15" target="KQYetCOrPKmWB9ZuKT2d-17">
          <mxGeometry relative="1" as="geometry" />
        </mxCell>
        <mxCell id="KQYetCOrPKmWB9ZuKT2d-15" value="BIGQUERY&lt;br&gt;&lt;div&gt;&lt;br&gt;&lt;/div&gt;&lt;div&gt;&lt;br&gt;&lt;/div&gt;&lt;div&gt;1. Staging&lt;/div&gt;&lt;div&gt;2. History&lt;/div&gt;&lt;div&gt;3. Dimensions&lt;/div&gt;&lt;div&gt;4. Facts&lt;/div&gt;&lt;div&gt;5. Aggregate&lt;/div&gt;&lt;div&gt;6. Reporting Layer&lt;/div&gt;&lt;div&gt;&lt;br&gt;&lt;/div&gt;&lt;div&gt;&lt;br&gt;&lt;/div&gt;&lt;div&gt;&lt;br&gt;&lt;/div&gt;&lt;div&gt;&lt;br&gt;&lt;/div&gt;&lt;div&gt;&lt;br&gt;&lt;/div&gt;&lt;div&gt;&lt;br&gt;&lt;/div&gt;" style="rounded=0;whiteSpace=wrap;html=1;" vertex="1" parent="1">
          <mxGeometry x="620" y="170" width="110" height="250" as="geometry" />
        </mxCell>
        <mxCell id="KQYetCOrPKmWB9ZuKT2d-17" value="&lt;div&gt;DASHBOARDS AND DOWNSTREAM SYSTEMS&lt;/div&gt;" style="rounded=0;whiteSpace=wrap;html=1;" vertex="1" parent="1">
          <mxGeometry x="800" y="170" width="110" height="250" as="geometry" />
        </mxCell>
        <mxCell id="KQYetCOrPKmWB9ZuKT2d-19" value="AIRFLOW-CLOUD COMPOSER" style="rounded=0;whiteSpace=wrap;html=1;" vertex="1" parent="1">
          <mxGeometry x="20" y="50" width="890" height="50" as="geometry" />
        </mxCell>
      </root>
    </mxGraphModel>
  </diagram>
</mxfile>
